<?xml version="1.0" encoding="utf-8"?>
<!-- Generator: Adobe Illustrator 18.1.1, SVG Export Plug-In . SVG Version: 6.00 Build 0)  -->
<svg version="1.1" id="Calque_1" xmlns="http://www.w3.org/2000/svg" xmlns:xlink="http://www.w3.org/1999/xlink" x="0px" y="0px"
	 viewBox="-70.9 0 708.7 566.9" enable-background="new -70.9 0 708.7 566.9" xml:space="preserve">
<g>
	<path fill="#FFFFFF" d="M-36.7,135.2v46.4h21.6c4.9,0,8.5-1,10.9-3.2c2.4-2.2,3.7-6.5,4.6-12.9h3.2v39.9H0.3c0-4.6-0.7-8-1.9-10
		c-1.2-2.2-2.7-3.7-4.8-4.8c-2-1-4.9-1.5-9-1.5h-21.4v37c0,5.9,0.3,9.8,1.2,11.9c0.5,1.5,1.9,2.7,3.7,3.7c2.5,1.4,5.3,2,8,2h4.2v3.2
		h-50.8v-3.2h4.2c4.9,0,8.5-1.4,10.7-4.2c1.4-1.9,2-6.3,2-13.4v-76.4c0-5.9-0.3-9.8-1.2-11.9c-0.5-1.5-1.7-2.7-3.6-3.7
		c-2.5-1.4-5.1-2-8-2h-4.2v-3.2h87.8l1.2,26h-3.1c-1.5-5.4-3.2-9.5-5.3-12.2c-2-2.5-4.4-4.4-7.5-5.6c-2.9-1.2-7.5-1.7-13.6-1.7
		C-10.8,135.2-36.7,135.2-36.7,135.2z"/>
	<path fill="#FFFFFF" d="M78,164.7c12.1,0,21.7,4.6,29,13.8c6.3,7.8,9.3,16.8,9.3,27c0,7.1-1.7,14.4-5.1,21.7
		c-3.4,7.3-8.2,12.9-14.1,16.5c-5.9,3.7-12.7,5.6-20,5.6c-12.1,0-21.6-4.8-28.7-14.4c-5.9-8.2-9-17.1-9-27.2
		c0-7.3,1.9-14.6,5.4-21.7c3.6-7.3,8.3-12.6,14.3-16C65.1,166.4,71.4,164.7,78,164.7z M75.3,170.5c-3.1,0-6.1,0.8-9.3,2.7
		c-3.1,1.9-5.6,5.1-7.5,9.7c-1.9,4.6-2.9,10.5-2.9,17.7c0,11.5,2.4,21.6,7,30.1c4.6,8.5,10.7,12.6,18.2,12.6c5.6,0,10.2-2.4,13.9-7
		s5.4-12.6,5.4-23.9c0-14.1-3.1-25.3-9.2-33.4C87,173.2,81.8,170.5,75.3,170.5z"/>
	<path fill="#FFFFFF" d="M158.9,181.7c9.3-11.2,18.2-16.8,26.7-16.8c4.4,0,8.2,1,11.2,3.2c3.1,2.2,5.6,5.8,7.5,10.7
		c1.4,3.6,1.9,8.8,1.9,16v34c0,5.1,0.3,8.5,1.2,10.4c0.7,1.5,1.7,2.5,3.1,3.4c1.4,0.8,4.1,1.2,7.8,1.2v3.1h-39.4v-3.1h1.7
		c3.7,0,6.3-0.5,7.8-1.7c1.5-1.2,2.5-2.7,3.1-4.9c0.2-0.8,0.3-3.6,0.3-8.2v-32.8c0-7.3-1-12.6-2.9-15.8c-1.9-3.2-5.1-4.9-9.5-4.9
		c-7,0-13.8,3.7-20.7,11.4v42.1c0,5.4,0.3,8.7,1,10c0.8,1.7,1.9,2.9,3.4,3.7c1.4,0.8,4.2,1.2,8.7,1.2v3.1h-39.4v-3.1h1.7
		c4.1,0,6.8-1,8.2-3.1c1.4-2,2.2-5.9,2.2-11.7v-29.9c0-9.5-0.2-15.5-0.7-17.5c-0.5-2-1-3.6-2-4.2c-0.8-0.7-2-1.2-3.6-1.2
		c-1.7,0-3.6,0.5-5.8,1.4l-1.4-3.1l24.1-9.7h3.7v16.8H158.9z"/>
	<path fill="#FFFFFF" d="M255.5,140.9v26.1h18.7v6.1h-18.7V225c0,5.1,0.7,8.7,2.2,10.5c1.5,1.9,3.4,2.7,5.8,2.7
		c1.9,0,3.7-0.7,5.6-1.9c1.9-1.2,3.2-2.9,4.2-5.3h3.4c-2,5.8-4.9,10-8.7,12.9c-3.7,2.9-7.5,4.2-11.5,4.2c-2.7,0-5.3-0.7-7.8-2.2
		c-2.5-1.5-4.4-3.6-5.6-6.3c-1.2-2.7-1.9-7-1.9-12.7v-53.8h-12.6v-2.9c3.2-1.4,6.5-3.4,9.8-6.5c3.4-3.1,6.3-6.6,9-10.9
		c1.4-2.2,3.2-6.3,5.6-12.1H255.5z"/>
	<path fill="#FFFFFF" d="M302.7,197.1c0,11.9,2.9,21.1,8.7,27.8c5.8,6.8,12.6,10,20.4,10c5.3,0,9.8-1.4,13.6-4.2
		c3.9-2.9,7.1-7.8,9.7-14.8l2.7,1.7c-1.2,8-4.8,15.1-10.7,21.7c-5.9,6.5-13.2,9.8-22.1,9.8c-9.5,0-17.8-3.7-24.6-11.2
		c-6.8-7.5-10.2-17.5-10.2-30.1c0-13.6,3.6-24.3,10.5-31.9c7-7.6,15.8-11.4,26.3-11.4c9,0,16.3,2.9,22.1,8.8
		c5.8,5.9,8.7,13.8,8.7,23.6C357.7,197.1,302.7,197.1,302.7,197.1z M302.7,192.1h37c-0.3-5.1-0.8-8.7-1.9-10.9
		c-1.5-3.2-3.6-5.8-6.5-7.6c-2.9-1.9-5.9-2.7-9-2.7c-4.8,0-9.2,1.9-12.9,5.6C305.6,180.2,303.4,185.4,302.7,192.1z"/>
	<path fill="#FFFFFF" d="M371.5,167.1h37.2v3.2h-1.9c-2.5,0-4.6,0.5-5.9,1.7s-2,2.5-2,4.2c0,2.2,1,5.4,2.9,9.3l19.4,40.2l17.8-44
		c1-2.4,1.5-4.8,1.5-7.1c0-1-0.2-1.9-0.7-2.4c-0.5-0.7-1.2-1.2-2.2-1.5c-1-0.3-2.7-0.5-5.3-0.5v-3.2h26.3v3.2
		c-2.2,0.2-3.7,0.7-4.9,1.4c-1.2,0.7-2.4,2-3.9,3.9c-0.5,0.8-1.5,3.1-2.9,6.6l-32.4,79.6c-3.1,7.6-7.3,13.6-12.4,17.5
		c-5.1,3.9-10,5.9-14.6,5.9c-3.4,0-6.3-1-8.5-2.9c-2.2-2-3.2-4.2-3.2-6.8c0-2.4,0.8-4.4,2.4-5.9s3.7-2.2,6.6-2.2
		c1.9,0,4.6,0.7,7.8,1.9c2.4,0.8,3.7,1.4,4.4,1.4c1.7,0,3.6-0.8,5.8-2.7c2-1.9,4.1-5.3,6.3-10.5l5.6-13.9l-29-59.9
		c-0.8-1.9-2.2-4.1-4.2-6.6c-1.5-2-2.7-3.4-3.6-4.1c-1.4-0.8-3.6-1.7-6.5-2.4v-3.4H371.5z"/>
	<path fill="#FFFFFF" d="M495.7,181.7c9.3-11.2,18.2-16.8,26.7-16.8c4.4,0,8.2,1,11.2,3.2c3.1,2.2,5.6,5.8,7.5,10.7
		c1.4,3.6,1.9,8.8,1.9,16v34c0,5.1,0.3,8.5,1.2,10.4c0.7,1.5,1.7,2.5,3.1,3.4s4.1,1.2,7.8,1.2v3.1h-39.4v-3.1h1.7
		c3.7,0,6.3-0.5,7.8-1.7c1.5-1.2,2.5-2.7,3.1-4.9c0.2-0.8,0.3-3.6,0.3-8.2v-32.8c0-7.3-1-12.6-2.9-15.8s-5.1-4.9-9.5-4.9
		c-7,0-13.8,3.7-20.7,11.4v42.1c0,5.4,0.3,8.7,1,10c0.8,1.7,1.9,2.9,3.4,3.7c1.4,0.8,4.2,1.2,8.7,1.2v3.1h-39.4v-3.1h1.7
		c4.1,0,6.8-1,8.2-3.1c1.4-2,2.2-5.9,2.2-11.7v-29.9c0-9.5-0.2-15.5-0.7-17.5c-0.5-2-1-3.6-2-4.2c-0.8-0.7-2-1.2-3.6-1.2
		c-1.7,0-3.6,0.5-5.8,1.4l-1.4-3.1l24.1-9.7h3.7v16.8H495.7z"/>
	<path fill="#FFFFFF" d="M582.7,197.1c0,11.9,2.9,21.1,8.7,27.8c5.8,6.8,12.6,10,20.4,10c5.3,0,9.8-1.4,13.6-4.2
		c3.9-2.9,7.1-7.8,9.7-14.8l2.7,1.7c-1.2,8-4.8,15.1-10.7,21.7c-5.9,6.5-13.2,9.8-22.1,9.8c-9.5,0-17.8-3.7-24.6-11.2
		c-6.8-7.5-10.2-17.5-10.2-30.1c0-13.6,3.6-24.3,10.5-31.9c7-7.6,15.8-11.4,26.3-11.4c9,0,16.3,2.9,22.1,8.8
		c5.8,5.9,8.7,13.8,8.7,23.6C637.7,197.1,582.7,197.1,582.7,197.1z M582.7,192.1h36.8c-0.3-5.1-0.8-8.7-1.9-10.9
		c-1.5-3.2-3.6-5.8-6.5-7.6s-5.9-2.7-9-2.7c-4.8,0-9.2,1.9-12.9,5.6C585.4,180.2,583.2,185.4,582.7,192.1z"/>
</g>
<g>
	<path fill="#FFFFFF" d="M-71.9,356.9v-12.4h54.7v12.4h-20v54.3h-14.6v-54.3H-71.9z"/>
	<path fill="#FFFFFF" d="M13.4,344.7v25.6h27v-25.6H55v66.7H40.4v-28.7h-27v28.7H-1.2v-66.7H13.4z"/>
	<path fill="#FFFFFF" d="M126.1,344.7v12.4H91v14.3h32.3v11.4H91V399h36v12.4H76.3v-66.7H126.1z"/>
	<path fill="#FFFFFF" d="M193.8,344.7v27.7l26-27.7h18.3l-26,26.3l28.5,40.4h-18.3l-20-30.1l-8.3,8.5v21.6h-14.6v-66.7H193.8z"/>
	<path fill="#FFFFFF" d="M269.6,344.7v66.7H255v-66.7H269.6z"/>
	<path fill="#FFFFFF" d="M285.7,356.9v-12.4h54.7v12.4h-20v54.3h-14.6v-54.3H285.7z"/>
	<path fill="#FFFFFF" d="M399,362.4c-0.8-1.4-2-2.5-3.2-3.7c-1.4-1-2.7-1.9-4.4-2.5c-1.7-0.5-3.4-0.8-5.3-0.8
		c-3.2,0-6.1,0.7-8.3,1.9c-2.4,1.4-4.2,3.1-5.6,5.1c-1.4,2.2-2.5,4.6-3.1,7.3c-0.5,2.7-1,5.6-1,8.5c0,2.7,0.3,5.6,1,8.2
		c0.7,2.5,1.7,5.1,3.1,7.1c1.4,2,3.2,3.7,5.6,5.1s5.1,1.9,8.3,1.9c4.4,0,8-1.4,10.5-4.1s4.1-6.3,4.6-10.9h14.3
		c-0.3,4.2-1.4,8-2.9,11.4c-1.5,3.4-3.6,6.3-6.1,8.7c-2.5,2.4-5.6,4.2-9,5.4c-3.4,1.2-7.1,1.9-11.4,1.9c-5.1,0-9.7-0.8-13.8-2.7
		c-4.1-1.9-7.5-4.2-10.4-7.3c-2.9-3.1-4.9-6.8-6.5-11c-1.5-4.2-2.2-8.7-2.2-13.6s0.7-9.7,2.2-13.9c1.5-4.2,3.6-8,6.5-11.2
		s6.3-5.6,10.4-7.5c4.1-1.9,8.7-2.7,13.8-2.7c3.7,0,7.1,0.5,10.4,1.5c3.2,1,6.1,2.5,8.8,4.6c2.5,2,4.8,4.6,6.5,7.5
		c1.7,2.9,2.7,6.5,3.2,10.2h-14.3C400.5,365.4,399.8,363.9,399,362.4z"/>
	<path fill="#FFFFFF" d="M448.4,344.7v25.6h27v-25.6H490v66.7h-14.6v-28.7h-27v28.7h-14.6v-66.7H448.4z"/>
	<path fill="#FFFFFF" d="M561.1,344.7v12.4H526v14.3h32.3v11.4H526V399h36v12.4h-50.8v-66.7H561.1z"/>
	<path fill="#FFFFFF" d="M594.6,344.7l27.8,44.7h0.2v-44.7h13.8v66.7h-14.6l-27.7-44.8h-0.2v44.7h-13.8v-66.7h14.4V344.7z"/>
</g>
</svg>
