<?xml version="1.0" encoding="utf-8"?>
<!-- Generator: Adobe Illustrator 18.1.1, SVG Export Plug-In . SVG Version: 6.00 Build 0)  -->
<svg version="1.1" id="Calque_1" xmlns="http://www.w3.org/2000/svg" xmlns:xlink="http://www.w3.org/1999/xlink" x="0px" y="0px"
	 viewBox="-0.8 0 708.7 566.9" enable-background="new -0.8 0 708.7 566.9" xml:space="preserve">
<g>
	<path fill="#1D1D1B" d="M39.9,137.5v45.9h21.4c4.9,0,8.4-1,10.8-3.2c2.4-2.2,3.7-6.4,4.5-12.8h3.2V207h-3.2c0-4.5-0.7-7.9-1.8-9.9
		c-1.2-2.2-2.7-3.7-4.7-4.7c-2-1-4.9-1.5-8.9-1.5H39.9v36.7c0,5.9,0.3,9.8,1.2,11.8c0.5,1.5,1.8,2.7,3.7,3.7c2.5,1.3,5.2,2,7.9,2
		h4.2v3.2H6.6V245h4.2c4.9,0,8.4-1.3,10.6-4.2c1.3-1.8,2-6.2,2-13.3v-75.7c0-5.9-0.3-9.8-1.2-11.8c-0.5-1.5-1.7-2.7-3.5-3.7
		c-2.5-1.3-5-2-7.9-2H6.6v-3.2h86.9l1.2,25.7h-3c-1.5-5.4-3.2-9.4-5.2-12.1c-2-2.5-4.4-4.4-7.4-5.5c-2.9-1.2-7.4-1.7-13.5-1.7
		C65.6,137.5,39.9,137.5,39.9,137.5z"/>
	<path fill="#1D1D1B" d="M153.5,166.8c11.9,0,21.5,4.5,28.7,13.6c6.2,7.7,9.2,16.6,9.2,26.7c0,7.1-1.7,14.3-5,21.5
		c-3.4,7.2-8.1,12.8-14,16.3c-5.9,3.7-12.6,5.5-19.8,5.5c-11.9,0-21.4-4.7-28.4-14.3c-5.9-8.1-8.9-17-8.9-26.9
		c0-7.2,1.8-14.5,5.4-21.5c3.5-7.2,8.2-12.4,14.1-15.8C140.8,168.5,147,166.8,153.5,166.8z M150.8,172.5c-3,0-6.1,0.8-9.2,2.7
		c-3,1.8-5.5,5-7.4,9.6c-1.8,4.5-2.9,10.4-2.9,17.5c0,11.4,2.4,21.4,6.9,29.8c4.5,8.4,10.6,12.4,18,12.4c5.5,0,10.1-2.4,13.8-6.9
		c3.7-4.5,5.4-12.4,5.4-23.7c0-14-3-25.1-9.1-33.1C162.4,175.2,157.2,172.5,150.8,172.5z"/>
	<path fill="#1D1D1B" d="M233.6,183.6c9.2-11.1,18-16.6,26.4-16.6c4.4,0,8.1,1,11.1,3.2c3,2.2,5.5,5.7,7.4,10.6
		c1.3,3.5,1.8,8.7,1.8,15.8v33.6c0,5,0.3,8.4,1.2,10.3c0.7,1.5,1.7,2.5,3,3.4s4,1.2,7.7,1.2v3h-39v-3h1.7c3.7,0,6.2-0.5,7.7-1.7
		c1.5-1.2,2.5-2.7,3-4.9c0.2-0.8,0.3-3.5,0.3-8.1v-32.4c0-7.2-1-12.4-2.9-15.6s-5-4.9-9.4-4.9c-6.9,0-13.6,3.7-20.5,11.3v41.7
		c0,5.4,0.3,8.6,1,9.9c0.8,1.7,1.8,2.9,3.4,3.7c1.3,0.8,4.2,1.2,8.6,1.2v3h-39v-3h1.7c4,0,6.7-1,8.1-3s2.2-5.9,2.2-11.6v-29.6
		c0-9.4-0.2-15.3-0.7-17.3c-0.5-2-1-3.5-2-4.2c-0.8-0.7-2-1.2-3.5-1.2c-1.7,0-3.5,0.5-5.7,1.3l-1.3-3l23.9-9.6h3.7v16.6H233.6z"/>
	<path fill="#1D1D1B" d="M329.2,143.3v25.9h18.5v6.1h-18.5v51.3c0,5,0.7,8.6,2.2,10.4c1.5,1.8,3.4,2.7,5.7,2.7
		c1.8,0,3.7-0.7,5.5-1.8c1.8-1.2,3.2-2.9,4.2-5.2h3.4c-2,5.7-4.9,9.9-8.6,12.8c-3.7,2.9-7.4,4.2-11.4,4.2c-2.7,0-5.2-0.7-7.7-2.2
		s-4.4-3.5-5.5-6.2c-1.2-2.7-1.8-6.9-1.8-12.6v-53.3h-12.4v-2.9c3.2-1.3,6.4-3.4,9.8-6.4s6.2-6.6,8.9-10.8c1.3-2.2,3.2-6.2,5.5-11.9
		H329.2z"/>
	<path fill="#1D1D1B" d="M376,198.9c0,11.8,2.9,20.8,8.6,27.6c5.7,6.7,12.4,9.9,20.2,9.9c5.2,0,9.8-1.3,13.5-4.2
		c3.9-2.9,7.1-7.7,9.6-14.6l2.7,1.7c-1.2,7.9-4.7,15-10.6,21.5c-5.9,6.4-13.1,9.8-21.9,9.8c-9.4,0-17.7-3.7-24.4-11.1
		s-10.1-17.3-10.1-29.8c0-13.5,3.5-24,10.4-31.6c6.9-7.6,15.6-11.3,26.1-11.3c8.9,0,16.1,2.9,21.9,8.7c5.7,5.9,8.6,13.6,8.6,23.4
		C430.4,198.9,376,198.9,376,198.9z M376,193.9h36.7c-0.3-5-0.8-8.6-1.8-10.8c-1.5-3.2-3.5-5.7-6.4-7.6c-2.9-1.8-5.9-2.7-8.9-2.7
		c-4.7,0-9.1,1.8-12.8,5.5C378.8,182.1,376.6,187.3,376,193.9z"/>
	<path fill="#1D1D1B" d="M444.1,169.2h36.8v3.2H479c-2.5,0-4.5,0.5-5.9,1.7c-1.3,1.2-2,2.5-2,4.2c0,2.2,1,5.4,2.9,9.2l19.2,39.8
		l17.7-43.5c1-2.4,1.5-4.7,1.5-7.1c0-1-0.2-1.8-0.7-2.4c-0.5-0.7-1.2-1.2-2.2-1.5c-1-0.3-2.7-0.5-5.2-0.5v-3.2h26.1v3.2
		c-2.2,0.2-3.7,0.7-4.9,1.3c-1.2,0.7-2.4,2-3.9,3.9c-0.5,0.8-1.5,3-2.9,6.6L486.6,263c-3,7.6-7.2,13.5-12.3,17.3s-9.9,5.9-14.5,5.9
		c-3.4,0-6.2-1-8.4-2.9c-2.2-2-3.2-4.2-3.2-6.7c0-2.4,0.8-4.4,2.4-5.9c1.5-1.5,3.7-2.2,6.6-2.2c1.8,0,4.5,0.7,7.7,1.8
		c2.4,0.8,3.7,1.3,4.4,1.3c1.7,0,3.5-0.8,5.7-2.7c2-1.8,4-5.2,6.2-10.4l5.5-13.8L458,185.5c-0.8-1.8-2.2-4-4.2-6.6
		c-1.5-2-2.7-3.4-3.5-4c-1.3-0.8-3.5-1.7-6.4-2.4v-3.4H444.1z"/>
	<path fill="#1D1D1B" d="M567.1,183.6c9.2-11.1,18-16.6,26.4-16.6c4.4,0,8.1,1,11.1,3.2c3,2.2,5.5,5.7,7.4,10.6
		c1.3,3.5,1.8,8.7,1.8,15.8v33.6c0,5,0.3,8.4,1.2,10.3c0.7,1.5,1.7,2.5,3,3.4c1.3,0.8,4,1.2,7.7,1.2v3h-39v-3h1.7
		c3.7,0,6.2-0.5,7.7-1.7c1.5-1.2,2.5-2.7,3-4.9c0.2-0.8,0.3-3.5,0.3-8.1v-32.4c0-7.2-1-12.4-2.9-15.6s-5-4.9-9.4-4.9
		c-6.9,0-13.6,3.7-20.5,11.3v41.7c0,5.4,0.3,8.6,1,9.9c0.8,1.7,1.8,2.9,3.4,3.7c1.3,0.8,4.2,1.2,8.6,1.2v3h-39v-3h1.7
		c4,0,6.7-1,8.1-3s2.2-5.9,2.2-11.6v-29.6c0-9.4-0.2-15.3-0.7-17.3c-0.5-2-1-3.5-2-4.2c-0.8-0.7-2-1.2-3.5-1.2
		c-1.7,0-3.5,0.5-5.7,1.3l-1.3-3l23.9-9.6h3.7v16.6H567.1z"/>
	<path fill="#1D1D1B" d="M653.2,198.9c0,11.8,2.9,20.8,8.6,27.6c5.7,6.7,12.4,9.9,20.2,9.9c5.2,0,9.8-1.3,13.5-4.2
		c3.9-2.9,7.1-7.7,9.6-14.6l2.7,1.7c-1.2,7.9-4.7,15-10.6,21.5c-5.9,6.4-13.1,9.8-21.9,9.8c-9.4,0-17.7-3.7-24.4-11.1
		s-10.1-17.3-10.1-29.8c0-13.5,3.5-24,10.4-31.6c6.9-7.6,15.6-11.3,26.1-11.3c8.9,0,16.1,2.9,21.9,8.7c5.7,5.9,8.6,13.6,8.6,23.4
		C707.7,198.9,653.2,198.9,653.2,198.9z M653.2,193.9h36.5c-0.3-5-0.8-8.6-1.8-10.8c-1.5-3.2-3.5-5.7-6.4-7.6
		c-2.9-1.8-5.9-2.7-8.9-2.7c-4.7,0-9.1,1.8-12.8,5.5C655.9,182.1,653.7,187.3,653.2,193.9z"/>
</g>
<g>
	<path fill="#1D1D1B" d="M5.1,357.1v-12.3h54.1v12.3H39.4v53.8H24.9v-53.8H5.1z"/>
	<path fill="#1D1D1B" d="M89.5,345v25.4h26.7V345h14.5v66.1h-14.5v-28.4H89.5v28.4H75V345H89.5z"/>
	<path fill="#1D1D1B" d="M201.1,345v12.3h-34.8v14.1h31.9v11.3h-31.9v16.1H202v12.3h-50.1V345H201.1z"/>
	<path fill="#1D1D1B" d="M268.2,345v27.4l25.7-27.4h18.2l-25.7,26.1l28.2,40h-18.2l-19.8-29.8l-8.2,8.4v21.4h-14.5V345H268.2z"/>
	<path fill="#1D1D1B" d="M343.2,345v66.1h-14.5V345H343.2z"/>
	<path fill="#1D1D1B" d="M359.2,357.1v-12.3h54.1v12.3h-19.8v53.8H379v-53.8H359.2z"/>
	<path fill="#1D1D1B" d="M471.3,362.5c-0.8-1.3-2-2.5-3.2-3.7c-1.3-1-2.7-1.8-4.4-2.5c-1.7-0.5-3.4-0.8-5.2-0.8
		c-3.2,0-6.1,0.7-8.2,1.8c-2.4,1.3-4.2,3-5.5,5c-1.3,2.2-2.5,4.5-3,7.2c-0.5,2.7-1,5.5-1,8.4c0,2.7,0.3,5.5,1,8.1
		c0.7,2.5,1.7,5,3,7.1c1.3,2,3.2,3.7,5.5,5c2.4,1.3,5,1.8,8.2,1.8c4.4,0,7.9-1.3,10.4-4c2.5-2.7,4-6.2,4.5-10.8h14.1
		c-0.3,4.2-1.3,7.9-2.9,11.3c-1.5,3.4-3.5,6.2-6.1,8.6c-2.5,2.4-5.5,4.2-8.9,5.4c-3.4,1.2-7.1,1.8-11.3,1.8c-5,0-9.6-0.8-13.6-2.7
		c-4-1.8-7.4-4.2-10.3-7.2c-2.9-3-4.9-6.7-6.4-10.9c-1.5-4.2-2.2-8.6-2.2-13.5c0-4.9,0.7-9.6,2.2-13.8c1.5-4.2,3.5-7.9,6.4-11.1
		s6.2-5.5,10.3-7.4c4-1.8,8.6-2.7,13.6-2.7c3.7,0,7.1,0.5,10.3,1.5c3.2,1,6.1,2.5,8.7,4.5c2.5,2,4.7,4.5,6.4,7.4s2.7,6.4,3.2,10.1
		H473C472.8,365.5,472.1,364,471.3,362.5z"/>
	<path fill="#1D1D1B" d="M520.2,345v25.4H547V345h14.5v66.1H547v-28.4h-26.7v28.4h-14.5V345H520.2z"/>
	<path fill="#1D1D1B" d="M631.9,345v12.3h-34.8v14.1H629v11.3h-31.9v16.1h35.6v12.3h-50.3V345H631.9z"/>
	<path fill="#1D1D1B" d="M665,345l27.6,44.2h0.2V345h13.6v66.1h-14.5l-27.4-44.4h-0.2v44.2h-13.6v-66.1H665V345z"/>
</g>
</svg>
